<?xml version="1.0" standalone="no"?><svg xmlns="http://www.w3.org/2000/svg" viewBox="0 0 1440 320"><path fill="#008000" fill-opacity="0.57" d="M0,64L34.3,80C68.6,96,137,128,206,122.7C274.3,117,343,75,411,53.3C480,32,549,32,617,58.7C685.7,85,754,139,823,165.3C891.4,192,960,192,1029,192C1097.1,192,1166,192,1234,192C1302.9,192,1371,192,1406,192L1440,192L1440,0L1405.7,0C1371.4,0,1303,0,1234,0C1165.7,0,1097,0,1029,0C960,0,891,0,823,0C754.3,0,686,0,617,0C548.6,0,480,0,411,0C342.9,0,274,0,206,0C137.1,0,69,0,34,0L0,0Z"></path></svg>